<svg xmlns="http://www.w3.org/2000/svg" xmlns:xlink="http://www.w3.org/1999/xlink" width="500" zoomAndPan="magnify" viewBox="0 0 375 374.999991" height="500" preserveAspectRatio="xMidYMid meet" version="1.0"><defs><clipPath id="cb5e6ce807"><path d="M 216 1.875 L 312 1.875 L 312 54 L 216 54 Z M 216 1.875 " clip-rule="nonzero"/></clipPath><clipPath id="3c58566f3a"><path d="M 45 298.21875 L 258.75 298.21875 L 258.75 373.042969 L 45 373.042969 Z M 45 298.21875 " clip-rule="nonzero"/></clipPath></defs><path fill="#01faff" d="M 286.660156 261.605469 C 276.207031 275.191406 262.796875 286.847656 246.738281 295.511719 C 211.078125 314.738281 170.257812 314.949219 135.910156 299.640625 L 137.453125 296.179688 C 126.984375 291.484375 117.367188 285.375 108.777344 278.128906 L 106.269531 281.113281 C 94.480469 271.207031 84.324219 258.949219 76.574219 244.570312 C 58.214844 210.527344 57.191406 171.777344 70.460938 138.445312 L 73.738281 139.75 C 86.585938 107.050781 112.886719 81.828125 145.082031 69.875 L 144.023438 66.976562 C 169.539062 57.621094 196.667969 57.074219 221.597656 64.191406 L 220.828125 66.878906 C 239.195312 72.042969 255.605469 81.304688 269.195312 93.507812 L 271.03125 91.460938 C 281.527344 100.878906 290.601562 112.226562 297.671875 125.347656 C 310.492188 149.105469 314.855469 175.160156 311.820312 200.0625 L 308.921875 199.710938 C 308.894531 199.925781 308.882812 200.140625 308.851562 200.355469 C 305.933594 222.796875 297.082031 243.003906 284.117188 259.652344 Z M 204.050781 57.6875 C 133.96875 48.574219 69.761719 98 60.648438 168.085938 C 51.53125 238.171875 100.960938 302.375 171.042969 311.488281 C 241.128906 320.605469 305.335938 271.175781 314.449219 201.09375 C 323.5625 131.007812 274.136719 66.800781 204.050781 57.6875 " fill-opacity="1" fill-rule="nonzero"/><g clip-path="url(#cb5e6ce807)"><path fill="#01faff" d="M 311.542969 53.644531 C 285.09375 28.738281 252.441406 12.613281 216.734375 6.828125 L 225.8125 1.972656 C 257.296875 8.476562 286.25 22.871094 310.578125 44.105469 L 311.542969 53.644531 " fill-opacity="1" fill-rule="nonzero"/></g><path fill="#01faff" d="M 9.375 244.25 C 3.148438 225.375 0 205.679688 0 185.546875 C 0 133.324219 21.585938 83.929688 59.5625 48.488281 L 68.824219 48.789062 C 29.128906 83.261719 6.421875 132.914062 6.421875 185.546875 C 6.421875 207.480469 10.296875 228.886719 17.941406 249.222656 L 9.375 244.25 " fill-opacity="1" fill-rule="nonzero"/><path fill="#01faff" d="M 337.246094 287.382812 C 357.753906 257.296875 368.578125 222.15625 368.578125 185.546875 C 368.578125 165.625 365.367188 146.070312 359.011719 127.367188 L 366.8125 130.617188 C 372.25 148.359375 375 166.796875 375 185.546875 C 375 220.453125 365.496094 254.066406 347.410156 283.496094 L 337.246094 287.382812 " fill-opacity="1" fill-rule="nonzero"/><g clip-path="url(#3c58566f3a)"><path fill="#01faff" d="M 187.5 373.042969 C 132.4375 373.042969 81.289062 349.496094 45.585938 308.085938 L 46.03125 298.570312 C 80.628906 341.859375 132.003906 366.621094 187.5 366.621094 C 212.125 366.621094 235.957031 361.773438 258.394531 352.210938 L 254.5625 360.695312 C 233.199219 368.890625 210.6875 373.042969 187.5 373.042969 " fill-opacity="1" fill-rule="nonzero"/></g><path fill="#01faff" d="M 334.359375 179.550781 C 333.898438 162.933594 330.601562 146.230469 324.238281 130.164062 L 315.078125 133.78125 C 320.960938 148.625 324.027344 164.054688 324.496094 179.410156 C 327.78125 179.453125 331.070312 179.507812 334.359375 179.550781 " fill-opacity="1" fill-rule="nonzero"/><path fill="#01faff" d="M 82.457031 98.964844 C 92.835938 85.9375 105.804688 74.613281 121.140625 65.824219 C 157.441406 45.015625 199.3125 42.824219 235.730469 56.234375 L 239.136719 47 C 200.082031 32.617188 155.175781 34.964844 116.242188 57.28125 C 99.796875 66.707031 85.890625 78.851562 74.753906 92.820312 L 82.457031 98.964844 " fill-opacity="1" fill-rule="nonzero"/><path fill="#01faff" d="M 280.128906 287.726562 C 279.386719 287.203125 278.660156 286.671875 277.898438 286.179688 C 271.316406 291.894531 264.117188 297.078125 256.269531 301.574219 C 236.136719 313.113281 214.300781 318.910156 192.625 319.515625 C 192.429688 322.800781 192.285156 326.09375 192.179688 329.378906 C 215.667969 328.84375 239.351562 322.621094 261.164062 310.117188 C 269.792969 305.171875 277.683594 299.445312 284.878906 293.128906 C 283.289062 291.332031 281.726562 289.511719 280.128906 287.726562 " fill-opacity="1" fill-rule="nonzero"/><path fill="#01faff" d="M 89.0625 276.054688 C 82.210938 268.652344 76.058594 260.390625 70.828125 251.269531 C 49.03125 213.242188 47.660156 169.109375 63.25 131.535156 L 54.160156 127.753906 C 37.441406 168.050781 38.914062 215.382812 62.285156 256.164062 C 67.957031 266.058594 74.644531 275.003906 82.09375 283.011719 C 84.398438 280.675781 86.71875 278.351562 89.0625 276.054688 " fill-opacity="1" fill-rule="nonzero"/><path fill="#01faff" d="M 343.703125 185.042969 L 326.46875 185.042969 L 326.46875 186.195312 C 326.46875 223.625 311.960938 258.910156 285.628906 285.546875 L 284.828125 286.359375 L 297.007812 298.542969 L 305.132812 306.671875 C 273.621094 338.066406 231.902344 355.625 187.433594 356.214844 L 187.433594 327.460938 L 185.132812 327.527344 C 147.699219 327.527344 111.1875 312.246094 84.554688 285.90625 L 73.59375 297.257812 C 43.996094 267.542969 27.710938 228.148438 27.710938 186.195312 C 27.710938 143.855469 44.292969 104.125 74.402344 74.324219 C 104.078125 44.949219 143.402344 28.773438 185.132812 28.773438 L 187.433594 28.839844 L 187.433594 16.171875 C 232.289062 16.769531 274.335938 34.621094 305.941406 66.527344 C 337.433594 98.320312 354.898438 140.363281 355.191406 185.042969 Z M 81.070312 293.03125 L 84.996094 289.105469 C 111.96875 315.363281 147.472656 329.824219 185.132812 329.824219 L 185.132812 335.863281 C 144.617188 335.839844 107.855469 319.476562 81.070312 293.03125 Z M 307.574219 64.910156 C 275.265625 32.296875 232.191406 14.164062 186.289062 13.863281 L 185.132812 13.855469 L 185.132812 26.476562 C 142.792969 26.476562 102.894531 42.886719 72.789062 72.6875 C 42.238281 102.929688 25.414062 143.238281 25.414062 186.195312 C 25.414062 229.144531 42.238281 269.457031 72.789062 299.695312 L 73.601562 300.5 L 75.75 298.351562 C 103.902344 326.15625 142.539062 343.367188 185.132812 343.398438 L 185.132812 358.53125 L 186.289062 358.523438 C 232.191406 358.21875 275.265625 340.09375 307.574219 307.476562 L 308.375 306.664062 L 307.566406 305.859375 L 307.570312 305.855469 L 298.628906 296.917969 L 297.351562 295.640625 C 324.441406 267.582031 341.167969 229.460938 341.167969 187.472656 C 341.167969 187.441406 341.167969 187.40625 341.167969 187.375 C 338.664062 187.539062 336.152344 187.644531 333.636719 187.691406 C 333.578125 227.519531 317.71875 263.683594 292.042969 290.332031 L 288.0625 286.347656 C 288.824219 285.566406 289.542969 284.753906 290.285156 283.957031 C 291.007812 283.179688 291.746094 282.414062 292.453125 281.621094 C 293.308594 280.65625 294.128906 279.667969 294.957031 278.683594 C 295.632812 277.890625 296.320312 277.101562 296.980469 276.289062 C 297.796875 275.285156 298.570312 274.25 299.355469 273.222656 C 299.980469 272.40625 300.617188 271.601562 301.226562 270.777344 C 302 269.714844 302.738281 268.628906 303.480469 267.550781 C 304.046875 266.730469 304.632812 265.921875 305.183594 265.089844 C 305.921875 263.96875 306.617188 262.824219 307.320312 261.683594 C 307.828125 260.867188 308.355469 260.0625 308.84375 259.238281 C 309.558594 258.035156 310.222656 256.808594 310.894531 255.585938 C 311.335938 254.800781 311.800781 254.023438 312.21875 253.234375 C 312.9375 251.867188 313.605469 250.480469 314.28125 249.101562 C 314.609375 248.421875 314.96875 247.761719 315.285156 247.078125 C 316.226562 245.066406 317.121094 243.03125 317.964844 240.980469 C 318.058594 240.761719 318.144531 240.542969 318.230469 240.324219 C 319.03125 238.359375 319.792969 236.386719 320.503906 234.386719 C 320.777344 233.609375 321.015625 232.816406 321.277344 232.035156 C 321.742188 230.644531 322.222656 229.261719 322.644531 227.859375 C 322.921875 226.941406 323.152344 226.007812 323.414062 225.082031 C 323.773438 223.796875 324.152344 222.519531 324.472656 221.226562 C 324.722656 220.238281 324.925781 219.238281 325.148438 218.242188 C 325.429688 216.996094 325.734375 215.753906 325.980469 214.492188 C 326.1875 213.464844 326.347656 212.425781 326.53125 211.390625 C 326.75 210.148438 326.980469 208.914062 327.167969 207.667969 C 327.328125 206.613281 327.445312 205.542969 327.578125 204.484375 C 327.730469 203.246094 327.90625 202.011719 328.027344 200.765625 C 328.132812 199.691406 328.199219 198.605469 328.289062 197.519531 C 328.382812 196.277344 328.492188 195.042969 328.558594 193.792969 C 328.617188 192.707031 328.628906 191.605469 328.660156 190.511719 C 328.695312 189.457031 328.757812 188.402344 328.761719 187.34375 L 357.488281 187.34375 L 357.488281 186.195312 C 357.488281 140.476562 339.765625 97.40625 307.574219 64.910156 " fill-opacity="1" fill-rule="nonzero"/></svg>