<svg xmlns="http://www.w3.org/2000/svg" xmlns:xlink="http://www.w3.org/1999/xlink" width="1080" zoomAndPan="magnify" viewBox="0 0 810 540.000001" height="720" preserveAspectRatio="xMidYMid meet" version="1.0"><defs><clipPath id="bc4ae6f476"><path d="M 0.75 442 L 638.453125 442 L 638.453125 473.050781 L 0.75 473.050781 Z M 0.75 442 " clip-rule="nonzero"/></clipPath><clipPath id="eb04e104f9"><path d="M 144.207031 78.125 L 726.542969 78.125 L 726.542969 473.050781 L 144.207031 473.050781 Z M 144.207031 78.125 " clip-rule="nonzero"/></clipPath></defs><g clip-path="url(#bc4ae6f476)"><path fill="#c9c9db" d="M 624.082031 442.195312 L 7.613281 442.195312 C 3.820312 442.195312 0.75 445.269531 0.75 449.0625 L 0.75 458.953125 C 0.75 466.738281 7.058594 473.050781 14.84375 473.050781 L 624.082031 473.050781 C 631.867188 473.050781 638.179688 466.738281 638.179688 458.953125 L 638.179688 456.292969 C 638.179688 448.507812 631.867188 442.195312 624.082031 442.195312 " fill-opacity="1" fill-rule="nonzero"/></g><g clip-path="url(#eb04e104f9)"><path fill="#c9c9db" d="M 624.367188 473.050781 L 161.730469 473.050781 C 150.492188 473.050781 142.191406 462.570312 144.761719 451.628906 L 229.289062 91.574219 C 231.140625 83.695312 238.164062 78.125 246.257812 78.125 L 708.894531 78.125 C 720.132812 78.125 728.433594 88.605469 725.867188 99.546875 L 641.339844 459.601562 C 639.488281 467.480469 632.457031 473.050781 624.367188 473.050781 " fill-opacity="1" fill-rule="nonzero"/></g><path fill="#4061e3" d="M 146.976562 442.195312 L 626.265625 442.195312 L 703.347656 113.863281 L 224.058594 113.863281 L 146.976562 442.195312 " fill-opacity="1" fill-rule="nonzero"/><path fill="#180c45" d="M 708.800781 79.679688 C 706.804688 88.191406 704.804688 96.707031 702.808594 105.21875 C 702.277344 107.472656 701.75 109.722656 701.222656 111.976562 C 700.875 113.457031 703.152344 114.089844 703.503906 112.605469 C 705.5 104.09375 707.5 95.578125 709.496094 87.0625 C 710.023438 84.8125 710.554688 82.5625 711.082031 80.308594 C 711.429688 78.824219 709.148438 78.191406 708.800781 79.679688 " fill-opacity="1" fill-rule="nonzero"/><path fill="#180c45" d="M 635.824219 467.96875 C 638.351562 464.179688 639.179688 459.390625 638.230469 454.949219 C 637.316406 450.695312 634.617188 447 631.003906 444.625 C 629.019531 443.324219 626.746094 442.433594 624.402344 442.089844 C 623.769531 441.996094 623.128906 442.242188 622.945312 442.914062 C 622.792969 443.472656 623.136719 444.277344 623.773438 444.371094 C 627.476562 444.917969 630.835938 446.84375 633.195312 449.753906 C 635.632812 452.757812 636.644531 456.757812 636.132812 460.578125 C 635.832031 462.800781 635.023438 464.914062 633.78125 466.773438 C 632.933594 468.042969 634.980469 469.230469 635.824219 467.96875 " fill-opacity="1" fill-rule="nonzero"/><path fill="#180c45" d="M 355.335938 470.261719 C 351.363281 469.4375 347.738281 467.09375 345.402344 463.761719 C 342.941406 460.265625 342.023438 455.882812 342.847656 451.679688 C 343.335938 449.207031 344.355469 446.914062 345.875 444.90625 C 346.257812 444.398438 345.953125 443.585938 345.449219 443.289062 C 344.839844 442.933594 344.214844 443.199219 343.828125 443.714844 C 340.816406 447.691406 339.671875 452.867188 340.4375 457.769531 C 341.171875 462.441406 343.898438 466.558594 347.65625 469.367188 C 349.730469 470.917969 352.167969 472.019531 354.707031 472.542969 C 355.332031 472.675781 355.988281 472.359375 356.164062 471.71875 C 356.324219 471.128906 355.964844 470.390625 355.335938 470.261719 " fill-opacity="1" fill-rule="nonzero"/><path fill="#ffffff" d="M 372.964844 143.0625 C 396.171875 143.0625 419.378906 143.0625 442.589844 143.0625 C 462.496094 143.0625 482.40625 143.0625 502.3125 143.0625 C 521.078125 143.0625 539.835938 143.0625 558.597656 143.0625 C 578.257812 143.0625 597.914062 143.0625 617.570312 143.0625 C 640.171875 143.0625 662.773438 143.0625 685.371094 143.0625 C 688.546875 143.0625 691.722656 143.0625 694.894531 143.0625 C 696.417969 143.0625 696.421875 140.695312 694.894531 140.695312 C 671.6875 140.695312 648.480469 140.695312 625.269531 140.695312 C 605.363281 140.695312 585.453125 140.695312 565.546875 140.695312 C 546.785156 140.695312 528.023438 140.695312 509.261719 140.695312 C 489.605469 140.695312 469.945312 140.695312 450.289062 140.695312 C 427.6875 140.695312 405.089844 140.695312 382.488281 140.695312 C 379.3125 140.695312 376.136719 140.695312 372.964844 140.695312 C 371.441406 140.695312 371.4375 143.0625 372.964844 143.0625 " fill-opacity="1" fill-rule="nonzero"/><path fill="#180c45" d="M 353.488281 376.496094 L 209.710938 376.496094 C 203.628906 376.496094 199.140625 370.816406 200.550781 364.894531 L 217.765625 292.542969 C 218.773438 288.300781 222.566406 285.304688 226.925781 285.304688 L 363.261719 285.304688 C 369.347656 285.304688 373.832031 290.984375 372.425781 296.90625 L 353.488281 376.496094 " fill-opacity="1" fill-rule="nonzero"/><path fill="#180c45" d="M 350.921875 387.277344 L 353.488281 376.488281 L 342.476562 369.035156 L 333.390625 376.488281 L 343.566406 388.964844 C 345.773438 391.664062 350.113281 390.671875 350.921875 387.277344 " fill-opacity="1" fill-rule="nonzero"/><path fill="#ffffff" d="M 564.195312 429.453125 C 560.914062 429.453125 557.628906 429.453125 554.34375 429.453125 C 545.445312 429.453125 536.546875 429.453125 527.644531 429.453125 C 514.550781 429.453125 501.460938 429.453125 488.371094 429.453125 C 472.515625 429.453125 456.65625 429.453125 440.796875 429.453125 C 423.597656 429.453125 406.398438 429.453125 389.203125 429.453125 C 372.089844 429.453125 354.976562 429.453125 337.859375 429.453125 C 322.304688 429.453125 306.75 429.453125 291.195312 429.453125 C 278.511719 429.453125 265.828125 429.453125 253.144531 429.453125 C 244.8125 429.453125 236.484375 429.453125 228.15625 429.453125 C 223.8125 429.453125 216.226562 430.679688 214.417969 425.535156 C 212.261719 419.402344 218.863281 413.167969 224.640625 413.042969 C 224.867188 413.039062 225.097656 413.046875 225.324219 413.042969 C 227.011719 413.039062 228.695312 413.042969 230.382812 413.042969 C 238.046875 413.042969 245.714844 413.042969 253.378906 413.042969 C 265.585938 413.042969 277.789062 413.042969 289.992188 413.042969 C 305.308594 413.042969 320.621094 413.042969 335.941406 413.042969 C 352.941406 413.042969 369.945312 413.042969 386.949219 413.042969 C 404.21875 413.042969 421.480469 413.042969 438.746094 413.042969 C 454.851562 413.042969 470.953125 413.042969 487.058594 413.042969 C 500.53125 413.042969 514.007812 413.042969 527.480469 413.042969 C 537 413.042969 546.519531 413.042969 556.035156 413.042969 C 560.117188 413.042969 564.210938 412.964844 568.289062 413.042969 C 570.976562 413.09375 573.472656 414.289062 574.414062 416.960938 C 576.582031 423.109375 569.964844 429.304688 564.195312 429.453125 C 562.671875 429.492188 562.667969 431.859375 564.195312 431.820312 C 570.03125 431.671875 575.542969 427.308594 576.855469 421.5625 C 578.046875 416.335938 574.929688 411.261719 569.441406 410.726562 C 568.285156 410.617188 567.105469 410.675781 565.945312 410.675781 C 559.539062 410.675781 553.132812 410.675781 546.726562 410.675781 C 535.3125 410.675781 523.894531 410.675781 512.480469 410.675781 C 497.527344 410.675781 482.578125 410.675781 467.628906 410.675781 C 450.566406 410.675781 433.507812 410.675781 416.445312 410.675781 C 398.820312 410.675781 381.195312 410.675781 363.574219 410.675781 C 346.9375 410.675781 330.304688 410.675781 313.671875 410.675781 C 299.453125 410.675781 285.238281 410.675781 271.019531 410.675781 C 260.675781 410.675781 250.335938 410.675781 239.992188 410.675781 C 235.078125 410.675781 230.167969 410.660156 225.253906 410.675781 C 219.023438 410.695312 213.019531 415.117188 211.878906 421.433594 C 210.894531 426.890625 214.546875 431.617188 220.125 431.816406 C 220.421875 431.824219 220.722656 431.820312 221.019531 431.820312 C 225.949219 431.835938 230.878906 431.820312 235.804688 431.820312 C 246.164062 431.820312 256.523438 431.820312 266.882812 431.820312 C 281.164062 431.820312 295.445312 431.820312 309.726562 431.820312 C 326.371094 431.820312 343.015625 431.820312 359.660156 431.820312 C 377.226562 431.820312 394.792969 431.820312 412.355469 431.820312 C 429.414062 431.820312 446.472656 431.820312 463.527344 431.820312 C 478.515625 431.820312 493.503906 431.820312 508.488281 431.820312 C 519.875 431.820312 531.261719 431.820312 542.644531 431.820312 C 549 431.820312 555.355469 431.820312 561.710938 431.820312 C 562.539062 431.820312 563.363281 431.820312 564.195312 431.820312 C 565.714844 431.820312 565.71875 429.453125 564.195312 429.453125 " fill-opacity="1" fill-rule="nonzero"/><path fill="#ffffff" d="M 243.941406 399.8125 C 294.929688 399.8125 345.917969 399.8125 396.90625 399.8125 C 447.632812 399.8125 498.363281 399.8125 549.089844 399.8125 C 577.707031 399.8125 606.320312 399.8125 634.933594 399.8125 C 636.460938 399.8125 636.460938 397.445312 634.933594 397.445312 C 583.945312 397.445312 532.960938 397.445312 481.972656 397.445312 C 431.246094 397.445312 380.515625 397.445312 329.785156 397.445312 C 301.171875 397.445312 272.558594 397.445312 243.941406 397.445312 C 242.417969 397.445312 242.414062 399.8125 243.941406 399.8125 " fill-opacity="1" fill-rule="nonzero"/><path fill="#180c45" d="M 388.710938 226.089844 L 78.238281 226.089844 C 65.105469 226.089844 55.417969 213.820312 58.457031 201.039062 L 95.628906 44.800781 C 97.808594 35.636719 105.992188 29.171875 115.410156 29.171875 L 409.816406 29.171875 C 422.953125 29.171875 432.640625 41.441406 429.597656 54.222656 L 388.710938 226.089844 " fill-opacity="1" fill-rule="nonzero"/><path fill="#180c45" d="M 383.167969 249.371094 L 388.710938 226.074219 L 364.933594 209.972656 L 345.308594 226.074219 L 367.289062 253.011719 C 372.046875 258.84375 381.425781 256.695312 383.167969 249.371094 " fill-opacity="1" fill-rule="nonzero"/><path fill="#40c79a" d="M 461.304688 33.304688 C 458.640625 51.660156 441.609375 66.539062 423.261719 66.539062 C 404.914062 66.539062 392.203125 51.660156 394.863281 33.304688 C 397.527344 14.957031 414.558594 0.078125 432.902344 0.078125 C 451.25 0.078125 463.964844 14.957031 461.304688 33.304688 " fill-opacity="1" fill-rule="nonzero"/><path fill="#ffffff" d="M 416.4375 33.304688 C 416.4375 34.988281 415.078125 36.351562 413.398438 36.351562 C 411.714844 36.351562 410.351562 34.988281 410.351562 33.304688 C 410.351562 31.625 411.714844 30.257812 413.398438 30.257812 C 415.078125 30.257812 416.4375 31.625 416.4375 33.304688 " fill-opacity="1" fill-rule="nonzero"/><path fill="#ffffff" d="M 431.128906 33.304688 C 431.128906 34.988281 429.765625 36.351562 428.082031 36.351562 C 426.402344 36.351562 425.039062 34.988281 425.039062 33.304688 C 425.039062 31.625 426.402344 30.257812 428.082031 30.257812 C 429.765625 30.257812 431.128906 31.625 431.128906 33.304688 " fill-opacity="1" fill-rule="nonzero"/><path fill="#ffffff" d="M 445.816406 33.304688 C 445.816406 34.988281 444.453125 36.351562 442.773438 36.351562 C 441.089844 36.351562 439.726562 34.988281 439.726562 33.304688 C 439.726562 31.625 441.089844 30.257812 442.773438 30.257812 C 444.453125 30.257812 445.816406 31.625 445.816406 33.304688 " fill-opacity="1" fill-rule="nonzero"/><path fill="#709dff" d="M 237.601562 122.875 C 232.839844 155.6875 202.390625 182.289062 169.585938 182.289062 C 136.78125 182.289062 114.046875 155.6875 118.808594 122.875 C 123.566406 90.058594 154.019531 63.457031 186.824219 63.457031 C 219.625 63.457031 242.359375 90.058594 237.601562 122.875 " fill-opacity="1" fill-rule="nonzero"/><path fill="#ffffff" d="M 197.125 150.679688 C 185.894531 151.371094 164.28125 151.285156 153.800781 150.679688 C 138.464844 149.796875 127.109375 136.332031 130.664062 121.386719 L 131.914062 116.132812 C 134.878906 103.675781 146.011719 95.210938 158.804688 94.886719 C 169.636719 94.605469 191.300781 94.613281 202.128906 94.886719 C 217.484375 95.269531 228.824219 109.230469 225.265625 124.179688 L 224.015625 129.433594 C 221.054688 141.890625 209.902344 149.898438 197.125 150.679688 " fill-opacity="1" fill-rule="nonzero"/><path fill="#180c45" d="M 193.925781 143.800781 L 157.605469 143.800781 C 145.855469 143.800781 137.191406 132.824219 139.910156 121.394531 L 140.546875 118.71875 C 142.910156 108.78125 151.789062 101.765625 162.003906 101.765625 L 198.328125 101.765625 C 210.074219 101.765625 218.738281 112.738281 216.019531 124.171875 L 215.382812 126.847656 C 213.019531 136.785156 204.140625 143.800781 193.925781 143.800781 " fill-opacity="1" fill-rule="nonzero"/><path fill="#40c79a" d="M 161.71875 117.472656 C 160.476562 120.238281 157.722656 122.496094 154.597656 122.566406 C 151.851562 122.628906 149.78125 120.78125 149.722656 118.070312 C 149.691406 116.546875 147.324219 116.539062 147.355469 118.070312 C 147.417969 120.976562 149.082031 123.492188 151.835938 124.5 C 154.695312 125.554688 158.023438 124.632812 160.375 122.839844 C 161.820312 121.742188 163.015625 120.328125 163.761719 118.664062 C 164.023438 118.082031 163.929688 117.394531 163.339844 117.046875 C 162.832031 116.75 161.980469 116.886719 161.71875 117.472656 " fill-opacity="1" fill-rule="nonzero"/><path fill="#40c79a" d="M 206.371094 117.472656 C 205.125 120.238281 202.375 122.496094 199.246094 122.566406 C 196.503906 122.628906 194.433594 120.78125 194.375 118.070312 C 194.339844 116.546875 191.972656 116.539062 192.007812 118.070312 C 192.070312 120.976562 193.734375 123.492188 196.488281 124.5 C 199.347656 125.554688 202.671875 124.632812 205.023438 122.839844 C 206.46875 121.742188 207.667969 120.328125 208.414062 118.664062 C 208.675781 118.082031 208.582031 117.394531 207.988281 117.046875 C 207.484375 116.75 206.632812 116.886719 206.371094 117.472656 " fill-opacity="1" fill-rule="nonzero"/><path fill="#40c79a" d="M 165.472656 127.425781 C 165.457031 129.335938 166.117188 131.152344 167.417969 132.5625 C 168.640625 133.886719 170.347656 134.738281 172.074219 135.1875 C 175.898438 136.183594 180.328125 135.503906 183.625 133.304688 C 185.667969 131.941406 187.195312 130.046875 188.039062 127.738281 C 188.257812 127.140625 187.792969 126.441406 187.214844 126.28125 C 186.554688 126.105469 185.976562 126.507812 185.757812 127.109375 C 185.230469 128.542969 184.078125 130.050781 182.898438 130.925781 C 182.191406 131.457031 181.417969 131.898438 180.609375 132.253906 C 180.265625 132.40625 180.820312 132.175781 180.464844 132.316406 C 180.359375 132.355469 180.25 132.398438 180.140625 132.4375 C 179.960938 132.503906 179.777344 132.566406 179.59375 132.628906 C 179.152344 132.769531 178.703125 132.886719 178.253906 132.984375 C 177.335938 133.179688 176.828125 133.242188 175.832031 133.257812 C 175.417969 133.261719 175.007812 133.253906 174.59375 133.222656 C 174.375 133.207031 174.152344 133.183594 173.933594 133.15625 C 174.164062 133.183594 173.921875 133.15625 173.867188 133.144531 C 173.742188 133.125 173.617188 133.105469 173.488281 133.078125 C 173.105469 133.007812 172.722656 132.917969 172.34375 132.808594 C 172.144531 132.746094 171.945312 132.679688 171.746094 132.609375 C 171.683594 132.585938 171.617188 132.5625 171.554688 132.535156 C 171.488281 132.511719 171.425781 132.484375 171.363281 132.460938 C 171.484375 132.511719 171.484375 132.511719 171.363281 132.457031 C 171.027344 132.308594 170.699219 132.136719 170.382812 131.945312 C 170.214844 131.84375 170.054688 131.730469 169.894531 131.621094 C 169.839844 131.582031 169.789062 131.542969 169.738281 131.503906 C 169.964844 131.675781 169.640625 131.417969 169.601562 131.382812 C 169.445312 131.25 169.296875 131.105469 169.15625 130.957031 C 169.101562 130.898438 169.046875 130.839844 168.996094 130.78125 C 168.960938 130.742188 168.703125 130.421875 168.878906 130.65625 C 168.628906 130.324219 168.425781 129.972656 168.246094 129.601562 C 168.105469 129.308594 168.324219 129.828125 168.214844 129.527344 C 168.179688 129.4375 168.144531 129.34375 168.113281 129.253906 C 168.039062 129.03125 167.980469 128.808594 167.933594 128.578125 C 167.917969 128.515625 167.90625 128.449219 167.894531 128.382812 C 167.875 128.242188 167.871094 128.246094 167.890625 128.390625 C 167.882812 128.324219 167.875 128.253906 167.867188 128.179688 C 167.847656 127.929688 167.839844 127.679688 167.839844 127.425781 C 167.851562 125.902344 165.484375 125.902344 165.472656 127.425781 " fill-opacity="1" fill-rule="nonzero"/><path fill="#40c79a" d="M 166.65625 128.609375 C 173.402344 128.609375 180.152344 128.609375 186.898438 128.609375 C 188.421875 128.609375 188.425781 126.242188 186.898438 126.242188 C 180.152344 126.242188 173.402344 126.242188 166.65625 126.242188 C 165.132812 126.242188 165.128906 128.609375 166.65625 128.609375 " fill-opacity="1" fill-rule="nonzero"/><path fill="#180c45" d="M 183.949219 94.316406 C 185.417969 90.570312 186.792969 86.78125 188.039062 82.949219 C 188.511719 81.5 186.226562 80.875 185.757812 82.320312 C 184.511719 86.152344 183.136719 89.941406 181.664062 93.6875 C 181.433594 94.285156 181.921875 94.988281 182.492188 95.144531 C 183.164062 95.328125 183.714844 94.914062 183.949219 94.316406 " fill-opacity="1" fill-rule="nonzero"/><path fill="#180c45" d="M 183.5625 78.433594 C 183.234375 79.539062 183.253906 80.703125 183.777344 81.742188 C 184.226562 82.625 185.054688 83.226562 185.964844 83.5625 C 187.828125 84.253906 190.113281 83.542969 191.363281 82.03125 C 192.519531 80.625 193.398438 78.460938 192.253906 76.777344 C 191.34375 75.4375 189.644531 74.828125 188.0625 74.976562 C 185.980469 75.171875 184.207031 76.402344 183.5625 78.433594 C 183.371094 79.027344 183.78125 79.753906 184.386719 79.890625 C 185.035156 80.039062 185.640625 79.695312 185.84375 79.0625 C 185.867188 78.984375 185.898438 78.902344 185.929688 78.820312 C 186.011719 78.578125 185.792969 79.078125 185.929688 78.820312 C 186.011719 78.671875 186.089844 78.519531 186.1875 78.378906 C 186.210938 78.34375 186.238281 78.308594 186.261719 78.269531 C 186.328125 78.171875 186.335938 78.269531 186.171875 78.386719 C 186.222656 78.351562 186.265625 78.277344 186.304688 78.230469 C 186.421875 78.105469 186.550781 77.996094 186.675781 77.882812 C 186.804688 77.765625 186.417969 78.0625 186.632812 77.910156 C 186.703125 77.863281 186.773438 77.820312 186.84375 77.777344 C 186.972656 77.699219 187.105469 77.628906 187.238281 77.5625 C 187.496094 77.433594 186.984375 77.65625 187.207031 77.578125 C 187.277344 77.550781 187.34375 77.523438 187.417969 77.5 C 187.566406 77.453125 187.714844 77.410156 187.867188 77.378906 C 187.941406 77.363281 188.011719 77.351562 188.085938 77.339844 C 188.234375 77.308594 187.746094 77.371094 188.015625 77.347656 C 188.175781 77.332031 188.335938 77.324219 188.5 77.324219 C 188.644531 77.324219 188.785156 77.335938 188.929688 77.347656 C 189.195312 77.367188 188.707031 77.304688 188.851562 77.335938 C 188.925781 77.351562 189.003906 77.359375 189.082031 77.378906 C 189.214844 77.410156 189.347656 77.445312 189.476562 77.488281 C 189.542969 77.511719 189.605469 77.539062 189.667969 77.558594 C 189.792969 77.601562 189.390625 77.429688 189.507812 77.488281 C 189.546875 77.511719 189.589844 77.527344 189.628906 77.546875 C 189.738281 77.605469 189.847656 77.664062 189.949219 77.734375 C 190.054688 77.800781 190.195312 77.976562 189.914062 77.695312 C 189.964844 77.746094 190.023438 77.785156 190.074219 77.832031 C 190.113281 77.871094 190.152344 77.910156 190.191406 77.953125 C 190.226562 77.992188 190.386719 78.191406 190.230469 77.992188 C 190.078125 77.796875 190.222656 77.992188 190.257812 78.039062 C 190.292969 78.101562 190.324219 78.160156 190.355469 78.21875 C 190.480469 78.445312 190.261719 77.9375 190.328125 78.152344 C 190.347656 78.210938 190.371094 78.269531 190.386719 78.335938 C 190.402344 78.386719 190.410156 78.449219 190.425781 78.503906 C 190.472656 78.6875 190.398438 78.199219 190.40625 78.339844 C 190.40625 78.386719 190.414062 78.433594 190.414062 78.476562 C 190.421875 78.613281 190.414062 78.746094 190.40625 78.886719 C 190.394531 79.085938 190.457031 78.601562 190.421875 78.742188 C 190.414062 78.785156 190.410156 78.832031 190.398438 78.871094 C 190.378906 78.964844 190.359375 79.050781 190.332031 79.136719 C 190.308594 79.210938 190.285156 79.285156 190.261719 79.359375 C 190.242188 79.402344 190.222656 79.449219 190.207031 79.496094 C 190.160156 79.632812 190.324219 79.257812 190.253906 79.386719 C 190.148438 79.570312 190.066406 79.765625 189.953125 79.949219 C 189.898438 80.042969 189.835938 80.132812 189.777344 80.226562 C 189.742188 80.28125 189.703125 80.328125 189.671875 80.378906 C 189.609375 80.46875 189.5625 80.441406 189.730469 80.304688 C 189.574219 80.429688 189.453125 80.625 189.300781 80.765625 C 189.230469 80.832031 189.144531 80.886719 189.078125 80.953125 C 189.089844 80.941406 189.320312 80.78125 189.167969 80.882812 C 189.132812 80.90625 189.097656 80.929688 189.0625 80.957031 C 188.890625 81.070312 188.710938 81.167969 188.523438 81.257812 C 188.363281 81.335938 188.796875 81.164062 188.527344 81.25 C 188.445312 81.28125 188.359375 81.3125 188.273438 81.335938 C 188.109375 81.386719 187.878906 81.382812 187.726562 81.457031 C 187.914062 81.363281 187.996094 81.425781 187.871094 81.433594 C 187.824219 81.4375 187.773438 81.445312 187.726562 81.445312 C 187.640625 81.449219 187.554688 81.453125 187.472656 81.453125 C 187.394531 81.453125 187.320312 81.449219 187.246094 81.445312 C 187.199219 81.441406 187.152344 81.433594 187.105469 81.429688 C 186.976562 81.425781 187.445312 81.492188 187.199219 81.445312 C 187.011719 81.40625 186.828125 81.359375 186.644531 81.296875 C 186.375 81.210938 186.886719 81.425781 186.632812 81.292969 C 186.550781 81.253906 186.472656 81.214844 186.398438 81.171875 C 186.320312 81.125 186.25 81.074219 186.175781 81.027344 C 186.035156 80.9375 186.289062 81.113281 186.292969 81.117188 C 186.261719 81.078125 186.210938 81.046875 186.175781 81.015625 C 186.109375 80.957031 186.050781 80.894531 185.992188 80.832031 C 185.800781 80.628906 186.152344 81.074219 185.96875 80.796875 C 185.921875 80.726562 185.875 80.648438 185.835938 80.566406 C 185.679688 80.277344 185.898438 80.800781 185.8125 80.527344 C 185.785156 80.4375 185.757812 80.351562 185.734375 80.261719 C 185.699219 80.113281 185.726562 79.863281 185.71875 80.226562 C 185.722656 80.019531 185.703125 79.808594 185.714844 79.597656 C 185.726562 79.359375 185.664062 79.832031 185.703125 79.671875 C 185.71875 79.605469 185.726562 79.535156 185.738281 79.464844 C 185.769531 79.328125 185.804688 79.195312 185.84375 79.0625 C 186.019531 78.472656 185.628906 77.75 185.015625 77.609375 C 184.378906 77.464844 183.746094 77.796875 183.5625 78.433594 " fill-opacity="1" fill-rule="nonzero"/><path fill="#180c45" d="M 132.347656 113.640625 C 128.921875 113.851562 126.089844 115.769531 124.804688 118.972656 C 123.664062 121.816406 123.949219 125.171875 125.339844 127.875 C 126.167969 129.488281 127.457031 130.851562 129.023438 131.761719 C 130.34375 132.527344 131.535156 130.484375 130.21875 129.714844 C 129.574219 129.34375 129.28125 129.128906 128.761719 128.601562 C 128.238281 128.078125 128.042969 127.820312 127.664062 127.1875 C 127.28125 126.542969 127.128906 126.199219 126.921875 125.574219 C 126.828125 125.277344 126.742188 124.980469 126.675781 124.675781 C 126.640625 124.53125 126.613281 124.375 126.585938 124.222656 C 126.570312 124.148438 126.558594 124.074219 126.546875 123.996094 C 126.488281 123.621094 126.566406 124.226562 126.527344 123.851562 C 126.460938 123.203125 126.449219 122.554688 126.507812 121.90625 C 126.511719 121.828125 126.5625 121.441406 126.53125 121.652344 C 126.550781 121.507812 126.578125 121.355469 126.609375 121.210938 C 126.675781 120.878906 126.757812 120.550781 126.859375 120.230469 C 126.90625 120.089844 126.953125 119.945312 127.007812 119.808594 C 127.03125 119.738281 127.058594 119.671875 127.085938 119.601562 C 127.070312 119.648438 127.003906 119.789062 127.101562 119.578125 C 127.234375 119.300781 127.378906 119.023438 127.539062 118.753906 C 127.628906 118.617188 127.71875 118.476562 127.8125 118.34375 C 127.855469 118.28125 127.898438 118.222656 127.945312 118.164062 C 127.910156 118.207031 127.816406 118.324219 127.964844 118.148438 C 128.164062 117.910156 128.378906 117.683594 128.609375 117.472656 C 129.550781 116.617188 130.972656 116.09375 132.347656 116.011719 C 133.863281 115.917969 133.871094 113.550781 132.347656 113.640625 " fill-opacity="1" fill-rule="nonzero"/><path fill="#180c45" d="M 226.027344 116.898438 C 226.546875 117.097656 227.300781 117.511719 227.730469 117.84375 C 228.113281 118.148438 228.640625 118.710938 228.863281 119.03125 C 229.265625 119.621094 229.4375 119.984375 229.617188 120.546875 C 229.710938 120.835938 229.785156 121.132812 229.84375 121.429688 C 229.910156 121.789062 229.898438 121.71875 229.925781 122.140625 C 230.066406 124.539062 229.117188 126.9375 227.40625 128.636719 C 226.402344 129.636719 225.242188 130.289062 223.8125 130.605469 C 222.328125 130.9375 222.957031 133.222656 224.441406 132.890625 C 230.546875 131.53125 234.496094 123.578125 231.0625 118.078125 C 230.027344 116.421875 228.457031 115.308594 226.65625 114.613281 C 226.0625 114.382812 225.359375 114.867188 225.203125 115.441406 C 225.015625 116.109375 225.429688 116.664062 226.027344 116.898438 " fill-opacity="1" fill-rule="nonzero"/><path fill="#180c45" d="M 749.25 350.933594 L 429.101562 350.933594 L 472.234375 169.644531 C 474.414062 160.480469 482.597656 154.011719 492.015625 154.011719 L 786.417969 154.011719 C 799.554688 154.011719 809.246094 166.28125 806.203125 179.0625 L 769.03125 335.296875 C 766.851562 344.464844 758.664062 350.933594 749.25 350.933594 " fill-opacity="1" fill-rule="nonzero"/><path fill="#180c45" d="M 424.574219 369.867188 L 429.101562 350.933594 L 458.617188 342.9375 L 479.867188 350.933594 L 437.101562 380.285156 C 430.226562 383.339844 422.824219 377.1875 424.574219 369.867188 " fill-opacity="1" fill-rule="nonzero"/><path fill="#8977d4" d="M 509.925781 155.769531 C 507.269531 174.09375 490.265625 188.949219 471.945312 188.949219 C 453.628906 188.949219 440.933594 174.09375 443.589844 155.769531 C 446.246094 137.445312 463.253906 122.589844 481.570312 122.589844 C 499.886719 122.589844 512.585938 137.445312 509.925781 155.769531 " fill-opacity="1" fill-rule="nonzero"/><path fill="#ffffff" d="M 608.878906 241.375 C 604.121094 274.1875 573.664062 300.789062 540.863281 300.789062 C 508.0625 300.789062 485.324219 274.1875 490.085938 241.375 C 494.84375 208.5625 525.296875 181.960938 558.097656 181.960938 C 590.902344 181.960938 613.640625 208.5625 608.878906 241.375 " fill-opacity="1" fill-rule="nonzero"/><path fill="#ffffff" d="M 469.054688 145.539062 C 469.757812 144.042969 470.605469 142.886719 471.8125 141.785156 C 472.796875 140.882812 474.210938 140 475.402344 139.558594 C 476.847656 139.027344 477.953125 138.84375 479.460938 138.980469 C 479.441406 138.980469 479.816406 139.023438 479.644531 139 C 479.507812 138.980469 479.746094 139.019531 479.773438 139.023438 C 479.945312 139.058594 480.117188 139.085938 480.28125 139.128906 C 480.636719 139.214844 480.984375 139.324219 481.324219 139.457031 C 481.523438 139.539062 481.078125 139.339844 481.414062 139.496094 C 481.484375 139.53125 481.554688 139.5625 481.621094 139.597656 C 481.761719 139.667969 481.898438 139.742188 482.035156 139.820312 C 482.390625 140.027344 482.667969 140.222656 482.875 140.390625 C 484.09375 141.414062 484.929688 142.746094 485.453125 144.300781 C 485.5625 144.632812 485.648438 144.964844 485.710938 145.308594 C 485.777344 145.683594 485.703125 145.183594 485.722656 145.40625 C 485.734375 145.503906 485.742188 145.597656 485.75 145.695312 C 485.757812 145.890625 485.757812 146.085938 485.753906 146.277344 C 485.746094 146.433594 485.738281 146.585938 485.722656 146.742188 C 485.742188 146.53125 485.671875 147 485.664062 147.054688 C 485.589844 147.421875 485.484375 147.785156 485.359375 148.132812 C 484.929688 149.34375 483.914062 150.820312 483.011719 151.890625 C 481.863281 153.25 480.578125 154.492188 479.285156 155.714844 C 477.832031 157.082031 476.34375 158.417969 474.949219 159.847656 C 473.71875 161.109375 472.507812 162.472656 471.679688 164.042969 C 470.972656 165.390625 473.015625 166.585938 473.726562 165.238281 C 474.484375 163.792969 475.414062 162.769531 476.574219 161.570312 C 477.898438 160.210938 479.304688 158.941406 480.683594 157.648438 C 483.347656 155.148438 486.210938 152.460938 487.558594 148.988281 C 488.890625 145.558594 487.566406 141.644531 485.007812 139.132812 C 482.554688 136.726562 479.015625 136.09375 475.761719 136.964844 C 471.96875 137.976562 468.675781 140.804688 467.011719 144.34375 C 466.742188 144.921875 466.851562 145.621094 467.4375 145.964844 C 467.949219 146.265625 468.785156 146.121094 469.054688 145.539062 " fill-opacity="1" fill-rule="nonzero"/><path fill="#ffffff" d="M 468.8125 171.515625 C 468.8125 171.574219 468.8125 171.632812 468.808594 171.6875 C 468.773438 174.480469 473.109375 174.484375 473.144531 171.6875 C 473.144531 171.632812 473.144531 171.574219 473.144531 171.515625 C 473.183594 168.726562 468.847656 168.722656 468.8125 171.515625 C 468.8125 171.574219 468.8125 171.632812 468.808594 171.6875 C 468.773438 174.480469 473.109375 174.484375 473.144531 171.6875 C 473.144531 171.632812 473.144531 171.574219 473.144531 171.515625 C 473.183594 168.726562 468.847656 168.722656 468.8125 171.515625 " fill-opacity="1" fill-rule="nonzero"/><path fill="#180c45" d="M 569.722656 255.496094 C 567.777344 251.761719 565.167969 248.40625 562.175781 245.453125 C 562.332031 244.527344 560.878906 243.757812 560.25 244.644531 C 556.839844 249.429688 553.253906 254.308594 547.984375 257.183594 C 545.476562 258.550781 542.65625 259.382812 539.800781 259.496094 C 536.894531 259.613281 534.125 258.804688 531.667969 257.265625 C 529.132812 255.675781 526.820312 253.75 524.421875 251.957031 C 524.621094 251.183594 523.824219 250.125 522.957031 250.578125 C 522.875 250.625 522.792969 250.675781 522.710938 250.722656 C 522.660156 250.683594 522.613281 250.648438 522.558594 250.613281 C 521.429688 249.839844 520.125 251.042969 520.546875 252.0625 C 517.859375 253.9375 515.613281 256.359375 513.914062 259.214844 C 511.835938 262.722656 510.410156 267.21875 511.503906 271.273438 C 512.074219 273.375 513.515625 275.035156 515.414062 276.058594 C 517.253906 277.050781 519.40625 277.386719 521.457031 277.625 C 526.726562 278.234375 542.167969 278.664062 545.195312 278.761719 C 551.839844 278.984375 559.390625 279.269531 565.75 276.753906 C 575.128906 273.050781 573.761719 263.222656 569.722656 255.496094 " fill-opacity="1" fill-rule="nonzero"/><path fill="#f79d6d" d="M 531.46875 249.503906 C 530.53125 255.210938 525.789062 259.835938 520.878906 259.835938 C 515.96875 259.835938 512.75 255.210938 513.6875 249.503906 C 514.625 243.796875 519.363281 239.171875 524.273438 239.171875 C 529.183594 239.171875 532.40625 243.796875 531.46875 249.503906 " fill-opacity="1" fill-rule="nonzero"/><path fill="#f79d6d" d="M 575.453125 250.222656 C 574.515625 255.929688 569.773438 260.558594 564.863281 260.558594 C 559.953125 260.558594 556.730469 255.929688 557.667969 250.222656 C 558.605469 244.515625 563.347656 239.890625 568.257812 239.890625 C 573.167969 239.890625 576.390625 244.515625 575.453125 250.222656 " fill-opacity="1" fill-rule="nonzero"/><path fill="#f79d6d" d="M 546.875 213.757812 C 541.332031 214.101562 534.03125 218.890625 529.257812 223.84375 C 525.722656 227.507812 523.363281 233.734375 522.375 239.414062 C 520.335938 251.121094 517.160156 274.863281 531.695312 280.304688 C 534.488281 281.351562 537.523438 281.460938 540.429688 281.050781 C 557.398438 278.671875 569.167969 255.742188 569.738281 240.277344 C 569.878906 236.578125 566.203125 212.558594 546.875 213.757812 " fill-opacity="1" fill-rule="nonzero"/><path fill="#180c45" d="M 573.226562 198.484375 C 573.070312 198.304688 572.902344 198.128906 572.722656 197.960938 C 564.019531 189.703125 544.589844 204.777344 550.457031 215.480469 C 553.105469 220.300781 559.746094 220.539062 564.328125 218.855469 C 570.625 216.539062 578.765625 204.8125 573.226562 198.484375 " fill-opacity="1" fill-rule="nonzero"/><path fill="#180c45" d="M 569.308594 222.785156 C 567.296875 218.089844 563.539062 214.503906 558.726562 212.628906 C 548.644531 208.699219 536.59375 212.976562 528.976562 221.382812 C 526.769531 223.816406 520.898438 232.132812 522.375 239.410156 C 523.542969 239.027344 539.894531 231.441406 545.921875 221.523438 C 557.789062 234.261719 562.882812 237.484375 567.605469 239.675781 C 569.558594 240.582031 571.351562 240.515625 571.386719 239.242188 C 571.550781 233.6875 571.457031 227.804688 569.308594 222.785156 " fill-opacity="1" fill-rule="nonzero"/><path fill="#180c45" d="M 552.480469 247.910156 C 552.050781 250.273438 550.546875 252.191406 548.703125 252.191406 C 546.632812 252.191406 546.054688 250.273438 546.484375 247.910156 C 546.914062 245.542969 548.277344 243.625 550.261719 243.625 C 552.441406 243.625 552.910156 245.542969 552.480469 247.910156 " fill-opacity="1" fill-rule="nonzero"/><path fill="#180c45" d="M 534.886719 247.910156 C 534.460938 250.273438 532.953125 252.191406 531.113281 252.191406 C 529.046875 252.191406 528.464844 250.273438 528.894531 247.910156 C 529.324219 245.542969 530.6875 243.625 532.671875 243.625 C 534.851562 243.625 535.320312 245.542969 534.886719 247.910156 " fill-opacity="1" fill-rule="nonzero"/><path fill="#180c45" d="M 539.488281 243.453125 C 538.566406 245.25 537.53125 246.988281 536.6875 248.824219 C 536.015625 250.28125 535.222656 251.972656 535.378906 253.621094 C 535.5 254.9375 536.257812 256.027344 537.554688 256.402344 C 538.945312 256.800781 540.421875 256.328125 541.695312 255.78125 C 542.28125 255.527344 542.414062 254.664062 542.121094 254.160156 C 541.765625 253.554688 541.089844 253.480469 540.5 253.738281 C 540.078125 253.917969 539.503906 254.089844 539.003906 254.164062 C 539.234375 254.132812 538.878906 254.171875 538.863281 254.171875 C 538.757812 254.175781 538.648438 254.171875 538.542969 254.175781 C 538.476562 254.171875 538.40625 254.167969 538.339844 254.164062 C 538.476562 254.183594 538.5 254.1875 538.414062 254.171875 C 538.324219 254.152344 538.230469 254.125 538.144531 254.105469 C 538.101562 254.09375 538.054688 254.078125 538.015625 254.0625 C 538.164062 254.128906 538.175781 254.132812 538.058594 254.074219 C 538.015625 254.09375 537.761719 253.828125 538.019531 254.070312 C 537.957031 254.011719 537.902344 253.953125 537.839844 253.894531 C 538.039062 254.089844 537.863281 253.933594 537.828125 253.851562 C 537.746094 253.644531 537.859375 254.054688 537.792969 253.753906 C 537.78125 253.722656 537.710938 253.417969 537.738281 253.566406 C 537.761719 253.707031 537.726562 253.328125 537.726562 253.285156 C 537.726562 253.164062 537.730469 253.039062 537.746094 252.917969 C 537.761719 252.765625 537.816406 252.511719 537.886719 252.253906 C 537.984375 251.890625 538.109375 251.53125 538.246094 251.175781 C 538.5 250.492188 538.808594 249.835938 539.132812 249.183594 C 539.894531 247.652344 540.75 246.171875 541.53125 244.648438 C 541.820312 244.082031 541.675781 243.363281 541.105469 243.027344 C 540.574219 242.71875 539.78125 242.882812 539.488281 243.453125 " fill-opacity="1" fill-rule="nonzero"/><path fill="#180c45" d="M 532.902344 263.726562 C 535.273438 265.179688 538.226562 265.265625 540.882812 264.710938 C 543.507812 264.164062 546.15625 262.894531 547.980469 260.890625 C 549 259.765625 547.332031 258.089844 546.304688 259.21875 C 544.773438 260.898438 542.617188 261.910156 540.414062 262.394531 C 538.292969 262.863281 535.945312 262.8125 534.097656 261.679688 C 532.796875 260.882812 531.605469 262.929688 532.902344 263.726562 " fill-opacity="1" fill-rule="nonzero"/><path fill="#180c45" d="M 546.710938 240.210938 C 546.738281 241.558594 547.648438 242.546875 548.722656 243.191406 C 549.664062 243.753906 550.785156 244.03125 551.863281 244.230469 C 552.820312 244.40625 553.800781 244.535156 554.78125 244.511719 C 555.832031 244.484375 556.9375 244.203125 557.839844 243.613281 C 558.925781 242.894531 559.40625 241.640625 559.03125 240.425781 C 558.128906 237.511719 551.792969 235.503906 548.578125 237.0625 C 547.429688 237.617188 546.679688 238.628906 546.710938 240.210938 " fill-opacity="1" fill-rule="nonzero"/><path fill="#180c45" d="M 536.746094 236.601562 C 533.527344 235.042969 527.195312 237.050781 526.289062 239.964844 C 525.914062 241.179688 526.398438 242.4375 527.484375 243.152344 C 528.382812 243.742188 529.488281 244.023438 530.542969 244.050781 C 531.523438 244.074219 532.5 243.945312 533.457031 243.769531 C 534.535156 243.570312 535.660156 243.292969 536.597656 242.730469 C 537.675781 242.085938 538.582031 241.097656 538.609375 239.75 C 538.644531 238.167969 537.890625 237.15625 536.746094 236.601562 " fill-opacity="1" fill-rule="nonzero"/><path fill="#d47a4a" d="M 260.070312 174.457031 C 258.613281 172.804688 256.882812 171.414062 254.960938 170.355469 C 257.453125 166.855469 259.601562 163.054688 260.492188 158.816406 C 260.742188 157.605469 261.089844 156.117188 260.339844 155.019531 C 259.652344 154.019531 258.414062 153.824219 257.324219 154.171875 C 256.21875 154.527344 255.421875 155.324219 254.605469 156.109375 C 253.640625 157.042969 252.683594 157.980469 251.726562 158.925781 C 247.910156 162.699219 244.179688 166.5625 240.542969 170.515625 C 236.433594 174.980469 232.488281 179.574219 228.675781 184.292969 C 228.070312 185.042969 228.515625 185.898438 229.195312 186.199219 C 229.042969 188.898438 229.296875 191.625 230.695312 194.011719 C 231.808594 195.910156 233.757812 197.464844 235.933594 197.859375 C 236.140625 198.5 236.769531 198.984375 237.617188 198.660156 C 241.113281 197.339844 244.53125 195.8125 247.960938 194.335938 C 251.28125 192.90625 254.679688 191.582031 257.855469 189.851562 C 260.492188 188.414062 263.359375 186.347656 263.660156 183.09375 C 263.949219 179.890625 262.117188 176.773438 260.070312 174.457031 " fill-opacity="1" fill-rule="nonzero"/><path fill="#f0dece" d="M 241.292969 188.660156 C 239.640625 186.363281 237.546875 184.320312 235.195312 182.746094 C 233.949219 181.910156 232.570312 180.992188 231 181.117188 C 229.453125 181.242188 228.238281 182.402344 227.101562 183.34375 C 224.417969 185.570312 221.914062 188.007812 219.648438 190.660156 C 218.714844 191.753906 220.058594 193.070312 221.152344 192.609375 C 221.144531 195.6875 221.621094 198.746094 222.585938 201.6875 C 223.179688 203.5 223.964844 205.238281 224.882812 206.910156 C 225.632812 208.265625 226.484375 209.765625 227.589844 210.917969 C 227.558594 210.957031 227.523438 210.992188 227.492188 211.027344 C 226.5625 212.140625 228.125 213.925781 229.273438 212.929688 C 230.398438 211.953125 231.417969 210.84375 232.472656 209.792969 C 233.53125 208.730469 234.589844 207.671875 235.652344 206.613281 C 237.75 204.527344 239.839844 202.4375 241.929688 200.34375 C 242.007812 200.265625 242.0625 200.171875 242.109375 200.074219 C 242.949219 199.085938 243.503906 197.824219 243.710938 196.570312 C 244.183594 193.734375 242.910156 190.914062 241.292969 188.660156 " fill-opacity="1" fill-rule="nonzero"/><path fill="#f0dece" d="M 236.015625 207.972656 C 235.167969 204.804688 233.53125 201.890625 232.074219 198.980469 C 230.523438 195.894531 229.019531 192.773438 227.40625 189.71875 C 226.6875 188.359375 225.671875 187.070312 224.011719 186.957031 C 222.285156 186.835938 220.960938 188.019531 219.714844 189.042969 C 208.851562 197.972656 198.054688 206.980469 187.351562 216.101562 C 176.644531 225.222656 166.023438 234.441406 155.523438 243.796875 C 155.128906 244.148438 154.738281 244.503906 154.347656 244.855469 C 154.320312 244.84375 154.292969 244.828125 154.265625 244.8125 C 153.652344 244.5 152.851562 244.851562 152.582031 245.457031 C 152.425781 245.8125 152.445312 246.15625 152.582031 246.453125 C 152.285156 246.726562 151.984375 246.996094 151.683594 247.265625 C 151.199219 247.699219 151 248.378906 151.410156 248.949219 C 151.761719 249.4375 152.601562 249.65625 153.089844 249.226562 C 153.5625 248.808594 154.039062 248.394531 154.515625 247.980469 C 155.664062 248.816406 156.714844 249.808594 157.714844 250.792969 C 159.183594 252.238281 160.589844 253.746094 162.007812 255.234375 C 164.824219 258.195312 167.601562 261.191406 170.328125 264.230469 C 175.886719 270.425781 181.265625 276.785156 186.445312 283.304688 C 189.347656 286.957031 192.175781 290.667969 194.964844 294.40625 C 196.097656 295.917969 198.46875 294.214844 197.347656 292.695312 C 196.835938 291.996094 196.308594 291.3125 195.792969 290.617188 C 202.957031 278.761719 209.707031 266.628906 216.394531 254.5 C 219.785156 248.347656 223.132812 242.167969 226.4375 235.964844 C 228.078125 232.886719 229.707031 229.800781 231.324219 226.707031 C 232.855469 223.777344 234.550781 220.855469 235.613281 217.714844 C 236.707031 214.484375 236.902344 211.277344 236.015625 207.972656 " fill-opacity="1" fill-rule="nonzero"/><path fill="#180c45" d="M 285.023438 419.644531 C 279.703125 417.050781 272.894531 417.605469 267.277344 418.667969 C 261.699219 419.722656 256.339844 421.363281 251.261719 423.570312 C 249.78125 424.09375 248.328125 424.660156 246.90625 425.285156 C 241.800781 427.527344 236.800781 430.476562 233.246094 434.375 C 231.28125 436.527344 229.617188 439.390625 229.453125 442.195312 L 278.816406 442.195312 C 282.457031 440.445312 285.734375 438.410156 288.402344 436.0625 C 292.433594 432.515625 292.925781 426.945312 289.332031 422.894531 C 288.078125 421.484375 286.617188 420.421875 285.023438 419.644531 " fill-opacity="1" fill-rule="nonzero"/><path fill="#a85e36" d="M 304.914062 338.257812 C 300.679688 335.417969 295.605469 334.253906 290.574219 334.011719 C 285.035156 333.738281 279.46875 334.324219 274.039062 335.394531 C 262.898438 337.582031 252.21875 341.734375 241.757812 346.0625 C 231.449219 350.328125 221.320312 355.050781 211.421875 360.199219 C 203.324219 364.417969 195.371094 368.910156 187.613281 373.710938 C 187.507812 373.1875 187.402344 372.660156 187.296875 372.136719 C 186.28125 367.097656 185.074219 362.09375 183.667969 357.15625 C 182.867188 354.359375 182.007812 351.578125 181.074219 348.820312 C 180.558594 347.285156 178.261719 348.1875 178.734375 349.71875 C 178.898438 350.242188 179.050781 350.761719 179.210938 351.285156 C 178.992188 351.261719 178.757812 351.273438 178.53125 351.332031 C 162.667969 355.320312 146.601562 358.386719 130.390625 360.570312 C 126.632812 361.074219 122.875 361.539062 119.109375 361.972656 C 119.472656 360.640625 117.425781 359.808594 116.78125 361.183594 C 116.597656 361.570312 116.421875 361.949219 116.242188 362.335938 C 115.539062 362.554688 115.328125 363.292969 115.519531 363.898438 C 112.226562 371.054688 109.195312 378.320312 106.882812 385.871094 C 104.566406 393.449219 102.859375 401.234375 102.84375 409.1875 C 102.820312 416.109375 104.136719 423.21875 107.769531 429.195312 C 111.515625 435.367188 117.65625 439.375 124.539062 441.238281 C 126.035156 441.648438 127.546875 441.960938 129.074219 442.195312 L 233.539062 442.195312 L 259.167969 424.417969 C 267.609375 418.554688 276.191406 412.835938 284.253906 406.449219 C 298.132812 395.453125 312.742188 380.132812 314.183594 361.53125 C 314.851562 352.914062 312.472656 343.324219 304.914062 338.257812 " fill-opacity="1" fill-rule="nonzero"/><path fill="#f0dece" d="M 111.613281 358.507812 C 111.613281 358.507812 106.398438 371.542969 111.613281 374.671875 C 116.824219 377.796875 165.855469 382.078125 185.28125 363.203125 C 189.097656 359.5 185.214844 353.382812 183.9375 350.734375 C 178.691406 339.875 143.695312 337.910156 143.695312 337.910156 L 111.613281 358.507812 " fill-opacity="1" fill-rule="nonzero"/><path fill="#f0dece" d="M 191.113281 331.140625 C 191.101562 331.023438 191.097656 330.914062 191.085938 330.792969 C 190.84375 328.003906 190.375 325.234375 189.765625 322.488281 C 190.820312 318.320312 191.183594 314.035156 190.949219 309.707031 C 190.605469 303.414062 189.066406 297.195312 187.046875 291.183594 C 185.027344 285.199219 182.476562 279.367188 179.785156 273.613281 C 177.457031 268.617188 174.933594 263.640625 171.597656 259.125 C 168.316406 254.679688 166.320312 250.511719 161.15625 247.886719 C 156.25 245.394531 150.519531 244.371094 144.933594 244.664062 C 139.359375 244.960938 133.6875 246.414062 129.21875 249.515625 C 116.824219 258.132812 103.316406 292.21875 101.351562 298.597656 C 97.582031 310.839844 93.097656 328.554688 94.410156 341.300781 C 95.425781 351.097656 101.488281 357.15625 111.664062 361.984375 C 117.601562 364.804688 124.558594 364.953125 131.097656 364.652344 C 138.292969 364.324219 145.46875 363.527344 152.546875 362.296875 C 159.675781 361.054688 166.714844 359.386719 173.59375 357.28125 C 176.839844 356.289062 180.246094 355.324219 183.140625 353.613281 C 183.703125 353.28125 184.230469 352.914062 184.726562 352.511719 C 186.453125 351.148438 187.8125 349.425781 188.792969 347.542969 C 191.425781 342.511719 191.566406 336.605469 191.113281 331.140625 " fill-opacity="1" fill-rule="nonzero"/><path fill="#180c45" d="M 191.113281 331.140625 C 188.246094 328.996094 185.40625 326.808594 182.601562 324.574219 C 174.976562 318.511719 167.570312 312.171875 160.410156 305.566406 C 156.382812 301.851562 152.433594 298.058594 148.558594 294.1875 C 147.257812 292.878906 145.257812 294.820312 146.40625 296.15625 C 146.382812 296.246094 146.363281 296.339844 146.359375 296.433594 C 144.640625 311.691406 145.671875 328.59375 155.90625 340.898438 C 160.261719 346.125 166.140625 350.300781 172.746094 352.09375 C 176.742188 353.179688 180.792969 353.246094 184.726562 352.511719 C 186.453125 351.148438 187.8125 349.425781 188.792969 347.542969 C 191.425781 342.511719 191.566406 336.605469 191.113281 331.140625 " fill-opacity="1" fill-rule="nonzero"/><path fill="#f0dece" d="M 247.007812 326.4375 C 238.308594 322.109375 229.710938 317.070312 222.253906 310.890625 C 214.71875 304.648438 207.96875 297.53125 201.539062 290.175781 C 194.808594 282.472656 187.875 273.972656 180.988281 266.402344 C 178.9375 264.148438 166.746094 249.894531 155.152344 246.605469 C 154.414062 250.429688 151.878906 255.003906 151.371094 258.863281 C 150.820312 263.082031 143.59375 258.304688 143.234375 262.542969 C 142.527344 270.949219 142.203125 279.390625 142.257812 287.824219 C 142.273438 290.214844 142.320312 292.605469 142.402344 294.996094 C 142.570312 299.816406 145.515625 305.738281 148.105469 309.621094 C 156.019531 321.496094 168.945312 332.492188 180.769531 340.46875 C 186.851562 344.570312 193.320312 348.09375 200.089844 350.914062 C 206.753906 353.691406 213.859375 355.710938 221.085938 356.195312 C 225.21875 356.46875 239.84375 354.835938 248.699219 351.078125 C 257.300781 347.425781 264.46875 341.6875 271.457031 335.9375 C 271.585938 335.832031 251.4375 328.644531 247.007812 326.4375 " fill-opacity="1" fill-rule="nonzero"/><path fill="#d47a4a" d="M 159.632812 248.945312 C 152.816406 248.519531 145.84375 247.203125 139.460938 245.246094 C 141.125 237.0625 142.929688 228.4375 144.695312 220.28125 C 150.824219 222.851562 157.027344 225.238281 163.332031 227.339844 C 162.660156 231.480469 160.097656 244.121094 159.632812 248.945312 " fill-opacity="1" fill-rule="nonzero"/><path fill="#d47a4a" d="M 138.277344 217.738281 C 139.40625 222.984375 142.59375 226.339844 145.859375 230.5625 C 149.027344 234.65625 158.285156 238.851562 158.335938 238.871094 C 163.894531 241.027344 172.015625 241.199219 175.742188 237.675781 C 178.390625 235.167969 178.832031 231.707031 178.25 228.03125 C 178.019531 226.605469 177.636719 225.136719 177.171875 223.6875 C 175.945312 219.90625 174.140625 216.199219 172.945312 213.3125 C 169.554688 205.089844 168.125 196.234375 158.832031 194.617188 C 153.582031 193.699219 143.859375 197.46875 140.710938 201.84375 C 137.472656 206.347656 137.132812 212.402344 138.277344 217.738281 " fill-opacity="1" fill-rule="nonzero"/><path fill="#85371c" d="M 131.101562 213.363281 C 133 212.476562 134.628906 211.128906 135.691406 209.144531 C 142.132812 197.144531 101.53125 186.457031 106.234375 205.585938 C 108.578125 215.128906 123.582031 216.875 131.101562 213.363281 " fill-opacity="1" fill-rule="nonzero"/><path fill="#85371c" d="M 163.046875 225.339844 C 161.398438 223.289062 159.179688 222.121094 156.734375 221.261719 C 153.96875 220.292969 151.179688 219.382812 148.363281 218.574219 C 148.261719 218.546875 148.164062 218.53125 148.070312 218.523438 C 146.1875 216.617188 144.082031 214.914062 141.777344 213.546875 C 140.609375 212.851562 139.378906 212.320312 138.085938 211.921875 C 137.203125 212.578125 136.378906 213.320312 135.472656 214.125 C 134.140625 215.308594 132.136719 215.445312 130.820312 214.125 C 130.679688 213.984375 130.558594 213.828125 130.449219 213.664062 C 130.007812 215.175781 129.480469 216.660156 128.84375 218.113281 C 125.695312 225.292969 116.859375 232.933594 123.585938 241.03125 C 126.15625 244.128906 130.457031 245.675781 134.414062 244.839844 C 136.519531 244.394531 138.265625 243.261719 140.160156 242.308594 C 142.128906 241.316406 143.914062 241.003906 146.058594 241.636719 C 148.164062 242.257812 150.15625 243.289062 152.355469 243.59375 C 154.25 243.855469 156.191406 243.621094 157.996094 243.007812 C 162.085938 241.625 164.734375 238.148438 165.339844 233.796875 C 165.726562 231.039062 164.65625 227.339844 163.046875 225.339844 " fill-opacity="1" fill-rule="nonzero"/><path fill="#85371c" d="M 166.203125 196.808594 C 169.78125 204.851562 160.941406 215.554688 156.960938 222.546875 C 147.578125 239.035156 131.78125 225.253906 130.089844 213 C 128.394531 200.75 136.371094 193.738281 148.097656 191.652344 C 153.351562 190.71875 163.472656 190.664062 166.203125 196.808594 " fill-opacity="1" fill-rule="nonzero"/><path fill="#d47a4a" d="M 171.585938 212.246094 C 171.585938 212.246094 175.847656 214.90625 178.328125 216.363281 C 179.871094 217.273438 181.007812 220.640625 175.027344 221.695312 C 170.90625 222.425781 171.585938 212.246094 171.585938 212.246094 " fill-opacity="1" fill-rule="nonzero"/><path fill="#180c45" d="M 169.550781 214.664062 C 169.9375 216.074219 170.949219 217.15625 172.066406 217.058594 C 173.320312 216.949219 173.570312 215.753906 173.183594 214.34375 C 172.796875 212.933594 171.867188 211.84375 170.664062 211.953125 C 169.34375 212.066406 169.164062 213.253906 169.550781 214.664062 " fill-opacity="1" fill-rule="nonzero"/><path fill="#85371c" d="M 165.804688 212.703125 C 165.609375 212.40625 165.488281 212.058594 165.445312 211.707031 C 165.277344 210.207031 165.917969 208.503906 167.164062 207.601562 C 167.320312 207.488281 167.496094 207.375 167.667969 207.28125 C 167.96875 207.125 168.4375 207.054688 168.765625 207.078125 C 169.523438 207.132812 170.222656 207.609375 170.550781 208.289062 C 170.808594 208.832031 170.816406 209.429688 170.636719 210 C 170.421875 210.671875 169.691406 211.144531 169.289062 211.722656 C 168.820312 212.394531 168.453125 213.113281 168.015625 213.363281 C 167.492188 213.664062 166.941406 213.671875 166.332031 213.25 C 166.125 213.105469 165.945312 212.917969 165.804688 212.703125 " fill-opacity="1" fill-rule="nonzero"/><path fill="#d47a4a" d="M 166.722656 219.160156 C 167.003906 222.351562 164.648438 225.164062 161.457031 225.449219 C 158.269531 225.726562 155.457031 223.371094 155.175781 220.179688 C 154.894531 216.988281 157.25 214.175781 160.441406 213.894531 C 163.628906 213.613281 166.441406 215.972656 166.722656 219.160156 " fill-opacity="1" fill-rule="nonzero"/><path fill="#180c45" d="M 163.53125 391.433594 C 171.300781 385.890625 179.066406 380.34375 186.835938 374.800781 C 187.355469 374.429688 187.605469 373.765625 187.261719 373.179688 C 186.960938 372.664062 186.164062 372.382812 185.644531 372.753906 C 177.875 378.296875 170.105469 383.84375 162.335938 389.390625 C 161.816406 389.761719 161.566406 390.425781 161.914062 391.007812 C 162.210938 391.523438 163.007812 391.808594 163.53125 391.433594 " fill-opacity="1" fill-rule="nonzero"/><path fill="#180c45" d="M 206.199219 441.804688 C 213.023438 436.707031 219.722656 431.441406 226.277344 426.011719 C 232.84375 420.570312 239.269531 414.960938 245.546875 409.195312 C 249.066406 405.957031 252.542969 402.667969 255.96875 399.335938 C 257.0625 398.269531 255.386719 396.597656 254.296875 397.660156 C 248.238281 403.554688 242.035156 409.296875 235.6875 414.878906 C 229.335938 420.460938 222.847656 425.878906 216.222656 431.128906 C 212.527344 434.058594 208.785156 436.933594 205.003906 439.757812 C 204.496094 440.136719 204.234375 440.78125 204.582031 441.378906 C 204.875 441.882812 205.683594 442.1875 206.199219 441.804688 " fill-opacity="1" fill-rule="nonzero"/><path fill="#180c45" d="M 159.5 251.460938 C 165.410156 254.675781 171.039062 258.410156 176.269531 262.648438 C 181.554688 266.925781 186.457031 271.683594 190.886719 276.84375 C 193.359375 279.71875 195.675781 282.726562 197.832031 285.84375 C 198.199219 286.367188 198.871094 286.609375 199.453125 286.269531 C 199.972656 285.964844 200.242188 285.175781 199.878906 284.648438 C 195.929688 278.945312 191.46875 273.597656 186.550781 268.703125 C 181.660156 263.835938 176.320312 259.414062 170.636719 255.507812 C 167.429688 253.304688 164.109375 251.273438 160.691406 249.417969 C 159.355469 248.6875 158.15625 250.730469 159.5 251.460938 " fill-opacity="1" fill-rule="nonzero"/><path fill="#180c45" d="M 222.636719 189.257812 C 225.671875 191.078125 228.402344 193.414062 230.496094 196.28125 C 232.632812 199.207031 234.125 202.519531 235.210938 205.964844 C 235.667969 207.410156 237.953125 206.792969 237.496094 205.335938 C 235.691406 199.617188 232.769531 194.261719 228.167969 190.320312 C 226.8125 189.164062 225.359375 188.128906 223.832031 187.214844 C 222.519531 186.429688 221.328125 188.472656 222.636719 189.257812 " fill-opacity="1" fill-rule="nonzero"/><path fill="#180c45" d="M 247.9375 172.355469 C 250.03125 172.132812 252.148438 172.195312 254.214844 172.613281 C 255.230469 172.820312 256.238281 173.101562 257.214844 173.457031 C 257.542969 173.578125 257.894531 173.722656 258.167969 173.945312 C 258.460938 174.183594 258.503906 174.488281 258.589844 174.828125 C 258.601562 174.867188 258.585938 174.914062 258.589844 174.953125 C 258.605469 175.117188 258.625 174.722656 258.601562 174.882812 C 258.585938 175.003906 258.503906 175.160156 258.605469 174.953125 C 258.5625 175.042969 258.507812 175.125 258.457031 175.210938 C 258.390625 175.320312 258.5 175.160156 258.507812 175.148438 C 258.457031 175.210938 258.40625 175.269531 258.347656 175.324219 C 258.261719 175.402344 258.179688 175.484375 258.089844 175.558594 C 258.261719 175.417969 257.988281 175.621094 257.933594 175.65625 C 257.679688 175.820312 257.410156 175.964844 257.136719 176.097656 C 255.890625 176.695312 254.285156 177.078125 252.851562 177.398438 C 250.855469 177.84375 248.835938 178.175781 246.820312 178.519531 C 246.191406 178.625 245.835938 179.402344 245.992188 179.976562 C 246.175781 180.640625 246.816406 180.910156 247.449219 180.800781 C 249.492188 180.453125 251.542969 180.117188 253.566406 179.664062 C 255.285156 179.277344 257.046875 178.824219 258.613281 178 C 259.796875 177.375 260.945312 176.351562 260.957031 174.914062 C 260.988281 172.210938 258.390625 171.253906 256.214844 170.65625 C 253.53125 169.921875 250.703125 169.695312 247.9375 169.988281 C 247.304688 170.054688 246.753906 170.484375 246.753906 171.171875 C 246.753906 171.757812 247.300781 172.421875 247.9375 172.355469 " fill-opacity="1" fill-rule="nonzero"/><path fill="#180c45" d="M 250.378906 178.855469 C 248.984375 183.09375 249.972656 187.828125 252.796875 191.242188 C 253.203125 191.738281 254.046875 191.664062 254.46875 191.242188 C 254.957031 190.757812 254.875 190.066406 254.46875 189.570312 C 252.179688 186.792969 251.542969 182.878906 252.660156 179.484375 C 253.136719 178.035156 250.851562 177.414062 250.378906 178.855469 " fill-opacity="1" fill-rule="nonzero"/><path fill="#180c45" d="M 111.167969 363.820312 C 120.8125 365.378906 130.628906 365.867188 140.382812 365.332031 C 150.300781 364.785156 160.230469 363.214844 169.714844 360.222656 C 174.824219 358.609375 179.816406 356.570312 184.53125 354.019531 C 185.871094 353.296875 184.679688 351.25 183.339844 351.976562 C 175.027344 356.472656 165.886719 359.296875 156.625 361.035156 C 147.015625 362.835938 137.175781 363.445312 127.410156 363.066406 C 122.179688 362.863281 116.960938 362.367188 111.796875 361.535156 C 111.167969 361.433594 110.523438 361.699219 110.339844 362.363281 C 110.1875 362.925781 110.53125 363.714844 111.167969 363.820312 " fill-opacity="1" fill-rule="nonzero"/><path fill="#ffffff" d="M 598.78125 416.945312 C 600.542969 418.824219 602.304688 420.707031 604.070312 422.585938 C 604.492188 423.039062 605.316406 423.046875 605.742188 422.585938 C 606.1875 422.101562 606.195312 421.394531 605.742188 420.914062 C 603.980469 419.03125 602.214844 417.148438 600.453125 415.269531 C 600.03125 414.816406 599.203125 414.808594 598.78125 415.269531 C 598.335938 415.757812 598.328125 416.460938 598.78125 416.945312 " fill-opacity="1" fill-rule="nonzero"/><path fill="#ffffff" d="M 597.878906 427.414062 C 600.402344 425.835938 602.957031 424.308594 605.503906 422.773438 C 606.046875 422.445312 606.253906 421.710938 605.929688 421.152344 C 605.609375 420.605469 604.855469 420.398438 604.308594 420.726562 C 601.761719 422.265625 599.207031 423.789062 596.683594 425.367188 C 596.140625 425.707031 595.925781 426.425781 596.257812 426.988281 C 596.574219 427.527344 597.332031 427.75 597.878906 427.414062 " fill-opacity="1" fill-rule="nonzero"/><path fill="#ffffff" d="M 612.117188 420.933594 C 610.925781 426.039062 606.84375 430.382812 601.894531 432.070312 C 599.574219 432.859375 597.042969 433.09375 594.667969 432.40625 C 592.671875 431.824219 590.949219 430.558594 589.890625 428.8125 C 587.363281 424.648438 588.925781 419.117188 591.9375 415.496094 C 595.125 411.664062 600.394531 408.847656 605.476562 409.875 C 607.84375 410.351562 609.90625 411.660156 611.136719 413.683594 C 612.445312 415.835938 612.667969 418.4375 612.117188 420.933594 C 611.789062 422.417969 614.070312 423.054688 614.398438 421.5625 C 615.011719 418.796875 614.863281 415.933594 613.644531 413.347656 C 612.527344 410.984375 610.492188 409.1875 608.097656 408.199219 C 602.519531 405.898438 596.011719 408.265625 591.804688 412.195312 C 587.632812 416.085938 584.835938 422.523438 586.964844 428.152344 C 587.882812 430.582031 589.613281 432.640625 591.929688 433.839844 C 594.5 435.171875 597.429688 435.425781 600.25 434.9375 C 606.273438 433.890625 611.523438 429.308594 613.742188 423.679688 C 614.015625 422.992188 614.230469 422.28125 614.398438 421.5625 C 614.742188 420.078125 612.464844 419.445312 612.117188 420.933594 " fill-opacity="1" fill-rule="nonzero"/><path fill="#ffffff" d="M 318.839844 113.507812 C 326.734375 113.585938 334.632812 113.632812 342.53125 113.652344 C 350.386719 113.667969 358.242188 113.652344 366.097656 113.609375 C 370.558594 113.589844 375.019531 113.550781 379.480469 113.507812 C 381.003906 113.492188 381.003906 111.125 379.480469 111.144531 C 371.59375 111.21875 363.710938 111.265625 355.824219 111.28125 C 347.964844 111.300781 340.105469 111.285156 332.246094 111.242188 C 327.777344 111.21875 323.308594 111.183594 318.839844 111.144531 C 317.316406 111.125 317.3125 113.492188 318.839844 113.507812 " fill-opacity="1" fill-rule="nonzero"/><path fill="#ffffff" d="M 272.777344 113.507812 C 282.070312 113.507812 291.363281 113.507812 300.65625 113.507812 C 302.179688 113.507812 302.179688 111.144531 300.65625 111.144531 C 291.363281 111.144531 282.070312 111.144531 272.777344 111.144531 C 271.253906 111.144531 271.25 113.507812 272.777344 113.507812 " fill-opacity="1" fill-rule="nonzero"/><path fill="#ffffff" d="M 295.539062 91 C 307.480469 91 319.421875 91 331.363281 91 C 341.996094 91 352.628906 91 363.269531 91 C 370.398438 91 377.527344 91 384.660156 91 C 386.183594 91 386.1875 88.632812 384.660156 88.632812 C 372.71875 88.632812 360.777344 88.632812 348.835938 88.632812 C 338.199219 88.632812 327.566406 88.632812 316.933594 88.632812 C 309.800781 88.632812 302.667969 88.632812 295.539062 88.632812 C 294.015625 88.632812 294.011719 91 295.539062 91 " fill-opacity="1" fill-rule="nonzero"/><path fill="#ffffff" d="M 267.410156 136.019531 C 281.335938 136.019531 295.261719 136.019531 309.183594 136.019531 C 322.964844 136.019531 336.75 136.019531 350.527344 136.019531 C 358.382812 136.019531 366.238281 136.019531 374.089844 136.019531 C 375.613281 136.019531 375.617188 133.652344 374.089844 133.652344 C 360.167969 133.652344 346.242188 133.652344 332.316406 133.652344 C 318.535156 133.652344 304.753906 133.652344 290.972656 133.652344 C 283.117188 133.652344 275.265625 133.652344 267.410156 133.652344 C 265.890625 133.652344 265.886719 136.019531 267.410156 136.019531 " fill-opacity="1" fill-rule="nonzero"/><path fill="#ffffff" d="M 342.847656 158.527344 C 351.488281 158.527344 360.128906 158.527344 368.769531 158.527344 C 370.296875 158.527344 370.296875 156.160156 368.769531 156.160156 C 360.128906 156.160156 351.488281 156.160156 342.847656 156.160156 C 341.324219 156.160156 341.320312 158.527344 342.847656 158.527344 " fill-opacity="1" fill-rule="nonzero"/><path fill="#ffffff" d="M 262.0625 158.527344 C 270.289062 158.589844 278.515625 158.628906 286.742188 158.644531 C 294.789062 158.65625 302.835938 158.644531 310.878906 158.613281 C 315.546875 158.589844 320.21875 158.5625 324.886719 158.527344 C 326.410156 158.515625 326.410156 156.148438 324.886719 156.160156 C 316.703125 156.222656 308.523438 156.261719 300.339844 156.277344 C 292.28125 156.289062 284.222656 156.277344 276.164062 156.242188 C 271.464844 156.222656 266.761719 156.195312 262.0625 156.160156 C 260.539062 156.148438 260.535156 158.515625 262.0625 158.527344 " fill-opacity="1" fill-rule="nonzero"/><path fill="#ffffff" d="M 727.976562 231.707031 C 734.832031 231.707031 741.6875 231.707031 748.542969 231.707031 C 750.066406 231.707031 750.066406 229.339844 748.542969 229.339844 C 741.6875 229.339844 734.832031 229.339844 727.976562 229.339844 C 726.453125 229.339844 726.453125 231.707031 727.976562 231.707031 " fill-opacity="1" fill-rule="nonzero"/><path fill="#ffffff" d="M 641.839844 231.707031 C 649.816406 231.667969 657.789062 231.644531 665.769531 231.636719 C 673.78125 231.628906 681.800781 231.636719 689.8125 231.65625 C 694.359375 231.667969 698.90625 231.683594 703.453125 231.707031 C 704.976562 231.714844 704.980469 229.34375 703.453125 229.339844 C 695.402344 229.300781 687.351562 229.277344 679.300781 229.269531 C 671.304688 229.261719 663.3125 229.269531 655.316406 229.289062 C 650.824219 229.300781 646.332031 229.316406 641.839844 229.339844 C 640.316406 229.34375 640.316406 231.714844 641.839844 231.707031 " fill-opacity="1" fill-rule="nonzero"/><path fill="#ffffff" d="M 664.597656 209.199219 C 676.542969 209.199219 688.484375 209.199219 700.425781 209.199219 C 711.058594 209.199219 721.695312 209.199219 732.328125 209.199219 C 739.460938 209.199219 746.589844 209.199219 753.722656 209.199219 C 755.246094 209.199219 755.25 206.832031 753.722656 206.832031 C 741.78125 206.832031 729.839844 206.832031 717.894531 206.832031 C 707.261719 206.832031 696.628906 206.832031 685.996094 206.832031 C 678.863281 206.832031 671.730469 206.832031 664.597656 206.832031 C 663.078125 206.832031 663.074219 209.199219 664.597656 209.199219 " fill-opacity="1" fill-rule="nonzero"/><path fill="#ffffff" d="M 636.472656 254.214844 C 650.398438 254.214844 664.324219 254.214844 678.25 254.214844 C 692.03125 254.214844 705.8125 254.214844 719.59375 254.214844 C 727.445312 254.214844 735.296875 254.214844 743.152344 254.214844 C 744.675781 254.214844 744.675781 251.847656 743.152344 251.847656 C 729.226562 251.847656 715.304688 251.847656 701.378906 251.847656 C 687.597656 251.847656 673.8125 251.847656 660.035156 251.847656 C 652.183594 251.847656 644.328125 251.847656 636.472656 251.847656 C 634.953125 251.847656 634.953125 254.214844 636.472656 254.214844 " fill-opacity="1" fill-rule="nonzero"/><path fill="#ffffff" d="M 677.382812 276.726562 C 685.171875 276.671875 692.957031 276.640625 700.746094 276.632812 C 708.796875 276.621094 716.847656 276.628906 724.898438 276.660156 C 729.210938 276.675781 733.523438 276.695312 737.832031 276.726562 C 739.359375 276.734375 739.359375 274.371094 737.832031 274.359375 C 730.023438 274.304688 722.214844 274.273438 714.40625 274.265625 C 706.359375 274.253906 698.316406 274.261719 690.269531 274.289062 C 685.972656 274.308594 681.679688 274.328125 677.382812 274.359375 C 675.859375 274.371094 675.855469 276.734375 677.382812 276.726562 " fill-opacity="1" fill-rule="nonzero"/><path fill="#ffffff" d="M 631.121094 276.726562 C 638.570312 276.726562 646.015625 276.726562 653.460938 276.726562 C 654.984375 276.726562 654.988281 274.359375 653.460938 274.359375 C 646.015625 274.359375 638.570312 274.359375 631.121094 274.359375 C 629.597656 274.359375 629.597656 276.726562 631.121094 276.726562 " fill-opacity="1" fill-rule="nonzero"/></svg>