<svg id="visual" viewBox="0 0 1920 1080" width="1920" height="1080" xmlns="http://www.w3.org/2000/svg" xmlns:xlink="http://www.w3.org/1999/xlink" version="1.1"><rect x="0" y="0" width="1920" height="1080" fill="#ffffff"></rect><path d="M0 734L20 755.2C40 776.3 80 818.7 120 814.3C160 810 200 759 240 738C280 717 320 726 360 752.2C400 778.3 440 821.7 480 817.3C520 813 560 761 600 769.5C640 778 680 847 720 850C760 853 800 790 840 757.8C880 725.7 920 724.3 960 740.5C1000 756.7 1040 790.3 1080 805.5C1120 820.7 1160 817.3 1200 820.8C1240 824.3 1280 834.7 1320 846.7C1360 858.7 1400 872.3 1440 873.8C1480 875.3 1520 864.7 1560 836.3C1600 808 1640 762 1680 756.8C1720 751.7 1760 787.3 1800 797C1840 806.7 1880 790.3 1900 782.2L1920 774L1920 1081L1900 1081C1880 1081 1840 1081 1800 1081C1760 1081 1720 1081 1680 1081C1640 1081 1600 1081 1560 1081C1520 1081 1480 1081 1440 1081C1400 1081 1360 1081 1320 1081C1280 1081 1240 1081 1200 1081C1160 1081 1120 1081 1080 1081C1040 1081 1000 1081 960 1081C920 1081 880 1081 840 1081C800 1081 760 1081 720 1081C680 1081 640 1081 600 1081C560 1081 520 1081 480 1081C440 1081 400 1081 360 1081C320 1081 280 1081 240 1081C200 1081 160 1081 120 1081C80 1081 40 1081 20 1081L0 1081Z" fill="#0ed3cf" stroke-linecap="round" stroke-linejoin="miter"></path></svg>